<svg version="1.1" id="Layer_1" xmlns="http://www.w3.org/2000/svg" xmlns:xlink="http://www.w3.org/1999/xlink" x="0px" y="0px"
	 width="100%" viewBox="0 0 720 752" enable-background="new 0 0 720 752" xml:space="preserve">
<path fill="#000000" opacity="1.000000" stroke="none" 
	d="
M721.000000,547.562500 
	C713.347900,554.709351 706.264282,562.135803 700.261108,570.193665 
	C688.901306,585.441589 673.268250,591.699707 655.549377,595.560669 
	C639.692017,599.016052 624.065857,598.568665 608.626953,594.777222 
	C603.789551,593.589294 599.926880,593.961853 595.813782,595.597046 
	C577.369446,602.930115 558.314636,603.579285 538.933228,601.108765 
	C536.444824,600.791626 533.940674,599.974426 531.820435,599.075256 
	C527.701111,597.328064 524.645752,598.922791 521.136658,600.328491 
	C499.173523,609.126587 476.658813,610.902832 453.630402,605.235596 
	C449.167725,604.137390 449.352448,600.151489 448.810455,596.838257 
	C447.659668,589.802673 445.714325,582.893494 445.434662,575.710327 
	C445.393463,574.652405 445.086945,573.351013 443.316284,572.871216 
	C440.755615,579.962585 437.993561,587.007507 435.688660,594.198975 
	C434.052704,599.303467 431.440704,601.673889 425.658203,601.271118 
	C396.401672,599.233337 367.054749,599.926636 337.778748,598.845398 
	C314.629028,597.990356 291.491028,598.594849 268.350769,597.764038 
	C240.240753,596.754700 212.069855,597.297974 183.975082,596.049561 
	C157.315567,594.864929 130.644012,596.280029 104.027405,594.867554 
	C78.080147,593.490723 52.121563,593.775940 26.169754,593.240723 
	C14.760515,593.005432 16.603462,595.138855 12.424799,582.973022 
	C5.525848,562.887451 5.575881,542.198181 9.621818,521.470215 
	C9.906574,520.011414 10.197693,518.494080 10.838150,517.175049 
	C13.227685,512.253601 12.891341,507.495636 11.111250,502.385315 
	C6.184245,488.240662 4.326814,473.487000 6.150177,458.730042 
	C7.087280,451.145813 7.347672,443.091461 11.097558,435.979065 
	C11.951590,434.359253 11.504287,432.852417 10.876066,431.205200 
	C4.571615,414.675171 1.243607,397.509796 3.096815,379.910736 
	C4.653912,365.123688 8.935347,351.301361 19.615417,339.654572 
	C30.842882,327.410889 40.809517,313.983521 50.940666,300.776947 
	C54.461605,296.187195 58.987000,297.064056 63.192616,297.311035 
	C81.676872,298.396545 100.186371,297.415131 118.652718,298.182587 
	C155.949188,299.732697 193.288269,298.823181 230.560028,300.084167 
	C264.005768,301.215698 297.453888,300.985870 330.876556,302.048737 
	C350.538208,302.673981 370.181396,302.508209 389.832275,302.709076 
	C397.521637,302.787689 399.728790,300.103485 397.329376,292.934967 
	C395.094147,286.256958 394.515228,279.307892 393.306427,272.495392 
	C391.661163,263.223114 389.995117,253.953094 388.271881,244.692719 
	C386.851624,237.060501 385.257446,229.482620 384.487793,221.706100 
	C383.707977,213.826813 381.786133,206.055145 380.252258,198.258423 
	C379.599091,194.938385 380.217316,192.379791 383.413910,190.690048 
	C401.360840,181.203140 419.308990,171.718018 437.200256,162.126862 
	C440.275940,160.478043 441.989075,160.324615 442.589661,164.449371 
	C443.174835,168.468475 445.536438,170.078049 449.951843,169.896851 
	C463.769104,169.329849 477.396667,166.635147 491.256622,166.540558 
	C494.939606,166.515411 497.955597,163.747070 501.271667,162.234589 
	C504.296509,160.854950 507.207123,159.215591 510.124146,157.610840 
	C516.208252,154.263794 519.348938,153.496384 520.290466,161.688431 
	C520.529968,163.772293 521.870911,164.552826 523.806641,164.278290 
	C535.161926,162.667755 546.664551,162.234772 558.048828,161.403900 
	C568.782043,160.620529 577.469299,156.320251 586.463440,151.722198 
	C592.437439,148.668091 594.788269,149.668869 596.255676,155.966187 
	C596.836731,158.460052 597.999573,159.739395 600.727600,159.515259 
	C613.823303,158.439209 626.913513,157.231659 640.029419,156.491684 
	C647.422363,156.074585 653.094543,151.889465 659.345886,148.916641 
	C661.731079,147.782379 663.989319,146.381149 666.396362,145.051361 
	C670.645874,149.363449 669.524475,155.038834 670.659485,159.855545 
	C673.124573,170.316864 674.327393,181.071869 676.155029,191.688065 
	C678.907959,207.678513 681.844055,223.637802 684.528748,239.639450 
	C686.313416,250.276001 687.264343,261.078217 689.541077,271.600159 
	C692.696533,286.183502 694.984009,300.909607 697.427002,315.596680 
	C701.048523,337.369354 705.397217,359.013214 708.505432,380.883118 
	C710.645325,395.939789 714.311279,410.774597 716.689636,425.804413 
	C717.930908,433.649017 719.723145,441.387939 720.882202,449.629517 
	C721.000000,458.020905 721.000000,466.041809 720.703003,474.287598 
	C719.397522,473.320038 718.914795,471.918304 718.850281,470.381592 
	C718.444275,460.719849 716.036560,451.317780 714.242065,441.925232 
	C711.228638,426.152496 709.130554,410.230621 705.927856,394.488892 
	C703.717468,383.624817 702.082031,372.622253 700.170898,361.684937 
	C697.067749,343.925537 694.313354,326.105316 691.073059,308.363617 
	C688.278931,293.064178 686.089722,277.655090 683.388367,262.337677 
	C680.769775,247.489243 677.345825,232.767929 675.166931,217.860535 
	C672.241516,197.846237 668.328064,178.020721 664.866089,158.109573 
	C664.036011,153.335968 662.906555,152.603210 658.612061,154.839462 
	C645.774475,161.524338 633.034668,168.396942 620.255981,175.194946 
	C618.562744,176.095718 617.130493,177.141800 617.445984,179.406372 
	C618.156250,184.504684 618.629272,189.645493 619.565735,194.701035 
	C621.975891,207.711014 624.690491,220.664703 627.087708,233.676956 
	C629.816772,248.490814 632.311523,263.347687 634.949158,278.178558 
	C637.700684,293.648987 640.512146,309.108673 643.276001,324.576904 
	C644.905579,333.697327 646.481934,342.827240 648.102966,351.949219 
	C650.824036,367.261597 653.661926,382.554077 656.252625,397.888428 
	C657.689331,406.392761 659.144104,414.927124 660.808655,423.353973 
	C664.335083,441.206757 666.973938,459.210266 670.563171,477.046844 
	C672.947144,488.893677 674.698120,500.866730 676.827026,512.766357 
	C679.627258,528.417969 682.416809,544.072937 685.433167,559.683594 
	C686.403809,564.706665 685.765686,570.189392 689.158081,575.034546 
	C696.285461,567.095886 703.087097,559.343933 710.098022,551.786072 
	C713.569763,548.043518 716.401367,543.615051 721.000000,541.000000 
	C721.000000,543.041687 721.000000,545.083313 721.000000,547.562500 
M433.469147,555.435730 
	C430.830994,560.437073 428.941315,565.698486 427.825989,571.231873 
	C429.963257,565.846619 432.851410,560.745789 434.464966,554.480896 
	C435.949310,550.724060 437.433685,546.967163 438.918060,543.210327 
	C436.255157,546.795166 434.355865,550.630493 433.469147,555.435730 
M50.220272,472.183014 
	C51.808506,482.495361 51.643845,492.993378 54.139084,503.244934 
	C55.913517,510.535065 55.378513,510.666290 63.001881,510.697021 
	C65.168015,510.705750 67.335960,510.650970 69.500084,510.719604 
	C113.443398,512.113159 157.420334,511.296570 201.367752,513.444519 
	C230.296860,514.858582 259.328369,513.192261 288.308472,514.454407 
	C312.924591,515.526428 337.579895,514.452698 362.211700,515.723572 
	C377.339233,516.504211 392.522949,516.428894 407.678314,516.316345 
	C413.192780,516.275452 418.829254,517.863159 424.936066,515.775085 
	C420.543671,499.994324 420.535522,484.079132 420.731262,468.102112 
	C420.813690,461.374420 422.563293,454.920624 422.860809,448.255920 
	C423.001953,445.094025 422.170502,443.485291 418.863739,443.542572 
	C417.536224,443.565582 416.206207,443.363373 414.876404,443.348511 
	C373.908417,442.890350 332.964142,441.012024 292.009674,440.578003 
	C251.205307,440.145538 210.421707,439.057404 169.626587,438.409241 
	C133.483215,437.834991 97.334976,437.565186 61.188713,437.176819 
	C54.480522,437.104706 53.431774,437.639069 52.563042,443.956726 
	C51.318703,453.005829 50.163200,462.091614 50.220272,472.183014 
M176.496613,517.389832 
	C165.001236,517.286865 153.486786,517.570129 142.014297,517.003662 
	C114.704361,515.655090 87.380638,516.729187 60.072498,516.075439 
	C56.468498,515.989136 54.928707,517.189453 53.956516,520.883545 
	C51.899979,528.697754 51.551373,536.630676 51.285500,544.565369 
	C50.867023,557.054199 52.575558,569.353455 55.192421,581.570007 
	C56.817436,589.156311 56.796375,589.536804 64.403435,589.589722 
	C101.716652,589.849365 139.034531,589.413940 176.339447,590.780823 
	C192.643585,591.378113 208.962006,591.022827 225.287888,591.566956 
	C262.398010,592.803833 299.539856,593.101746 336.669647,593.731812 
	C358.650970,594.104858 380.643066,593.450806 402.619568,594.643372 
	C410.033417,595.045654 417.487457,594.707031 424.848816,594.707031 
	C425.618805,592.530823 424.937897,590.965759 424.595642,589.365784 
	C422.116913,577.778931 420.709259,566.034485 421.102753,554.213562 
	C421.384369,545.753601 422.662018,537.321716 423.616119,528.890991 
	C424.275238,523.066589 423.765381,522.253052 418.256653,522.224792 
	C401.102448,522.136902 383.952087,522.236328 366.811737,521.138306 
	C343.203033,519.625793 319.528748,519.991882 295.897003,519.609192 
	C256.427429,518.969971 216.962280,518.111938 176.496613,517.389832 
M525.914062,552.644470 
	C525.812256,557.260315 528.550720,558.693054 532.630676,558.694641 
	C540.295898,558.697632 547.980042,559.088379 555.622070,558.678406 
	C568.267334,558.000183 580.556458,555.285950 592.475281,550.941833 
	C595.257935,549.927612 597.393555,548.483704 596.515198,545.149719 
	C593.976013,535.512573 592.874695,525.623352 591.157837,515.841187 
	C588.093384,498.380676 584.821411,480.956482 581.788940,463.490601 
	C578.505676,444.579926 575.480957,425.624329 572.185913,406.715790 
	C569.540955,391.537750 566.176575,376.469208 564.018799,361.226471 
	C561.786011,345.453979 558.568237,329.871918 556.006104,314.168121 
	C553.527832,298.978607 550.617310,283.858795 547.821289,268.722229 
	C546.020813,258.975189 544.066284,249.256699 542.214966,239.518921 
	C540.700134,231.551117 538.674072,223.627457 537.904480,215.585678 
	C537.108521,207.268250 534.849487,199.267197 533.793335,191.035858 
	C533.284302,187.069351 531.363892,185.780792 527.210205,186.815689 
	C517.229553,189.302338 507.263275,191.857483 497.051086,193.395432 
	C487.908752,194.772263 478.765289,194.208908 469.620514,194.268539 
	C465.774384,194.293655 464.441589,195.895950 464.155762,199.652985 
	C463.838165,203.827682 465.668304,207.437912 466.283447,211.346985 
	C468.603363,226.089951 471.110321,240.804855 473.690521,255.505127 
	C476.033020,268.851410 478.670624,282.146271 480.975464,295.498779 
	C482.977478,307.096649 484.210876,318.847076 486.665436,330.341858 
	C489.570953,343.948456 491.470154,357.713654 494.005432,371.373657 
	C496.089142,382.600800 497.717377,393.947083 499.782898,405.163300 
	C502.298309,418.822510 504.425446,432.559326 507.195343,446.178436 
	C508.977844,454.942596 510.010986,463.856354 511.592163,472.664948 
	C514.367188,488.124939 517.365540,503.544739 520.154114,519.002380 
	C522.124451,529.924255 523.903137,540.880737 525.914062,552.644470 
M578.437439,415.055573 
	C580.540710,426.982513 582.388428,438.975739 584.679871,450.841827 
	C587.628479,466.111237 589.756531,481.515747 592.921265,496.753174 
	C596.452332,513.754639 598.986023,530.969177 601.672729,548.135071 
	C602.217163,551.613708 603.568726,553.143433 606.947205,553.299500 
	C608.598083,553.375854 610.233093,553.793091 611.875610,554.054077 
	C620.898438,555.487549 629.745422,553.582397 638.689209,552.939209 
	C650.492615,552.090210 661.481262,548.701599 672.442566,544.745239 
	C676.400269,543.316833 677.434814,540.602783 676.522095,536.922485 
	C673.811584,525.992920 672.577820,514.805054 670.552917,503.757294 
	C667.779541,488.625916 664.754028,473.540833 661.957703,458.413544 
	C658.527832,439.859100 654.992371,421.319458 651.933228,402.702667 
	C649.222473,386.206299 645.995544,369.809906 643.104004,353.353943 
	C638.835022,329.058899 634.282043,304.817505 629.996704,280.529175 
	C627.894531,268.614502 625.887146,256.674377 623.686218,244.774994 
	C622.589844,238.846970 622.697205,232.608215 619.796936,227.046738 
	C619.102661,227.109528 618.572693,227.040802 618.138977,227.213531 
	C603.044739,233.225235 587.433350,236.696381 571.167236,237.555832 
	C565.336365,237.863907 559.561279,238.185333 553.727417,237.802811 
	C551.816711,237.677536 548.919067,237.018051 548.968933,240.506363 
	C549.011719,243.493286 548.882324,246.627716 549.718262,249.431824 
	C552.570618,259.000031 552.632507,269.036652 555.112488,278.688782 
	C557.036438,286.177155 557.600708,294.008545 558.899231,301.665436 
	C560.613098,311.771698 562.710876,321.819214 564.179688,331.959167 
	C566.342712,346.890594 569.514099,361.640045 571.837036,376.548767 
	C573.795044,389.115448 576.076172,401.665436 578.437439,415.055573 
M190.492813,353.967010 
	C208.469742,354.144562 226.442795,354.871033 244.396927,355.498291 
	C276.342438,356.614319 308.333649,355.715759 340.246368,357.999390 
	C360.872925,359.475372 381.552460,358.345978 402.202545,358.854614 
	C407.734924,358.990906 408.408661,358.027069 407.391907,352.292786 
	C405.198151,339.920258 402.599457,327.599030 401.009125,315.149170 
	C400.285278,309.482880 397.561127,308.283783 392.840759,308.255737 
	C381.182434,308.186523 369.508240,307.474091 357.880035,307.568115 
	C311.397736,307.943970 264.980011,305.071503 218.507629,305.263153 
	C204.527542,305.320801 190.544067,305.025970 176.564896,304.751770 
	C138.108948,303.997406 99.654068,303.186310 61.200165,302.334625 
	C58.128807,302.266602 55.874592,303.110718 53.889706,305.620636 
	C45.939335,315.674042 37.793659,325.572815 29.746063,335.549622 
	C26.056801,340.123291 21.687008,344.201538 18.476933,350.408508 
	C47.563061,350.716400 75.818298,351.931488 104.067543,352.406891 
	C132.542770,352.886108 161.006393,354.264435 190.492813,353.967010 
M298.707489,361.935669 
	C294.555359,361.727600 290.403900,361.356873 286.250946,361.339020 
	C265.946899,361.251740 245.649689,361.297333 225.362839,360.007812 
	C212.007187,359.158875 211.984070,359.459625 207.929657,371.806030 
	C207.673141,372.587189 207.486633,373.403229 207.373062,374.217743 
	C204.748291,393.041199 206.417465,411.621948 210.503601,430.074097 
	C211.204895,433.240936 212.619949,434.769867 216.259079,434.746368 
	C240.895142,434.587341 265.525055,435.367828 290.155304,435.603607 
	C316.278168,435.853729 342.383087,436.291656 368.478119,437.456970 
	C370.149109,437.531586 371.834198,437.677551 373.163757,435.763031 
	C371.445984,425.710388 369.537964,415.472351 369.199280,404.985352 
	C368.892365,395.482178 368.993134,385.960815 370.510620,376.668304 
	C372.758392,362.903839 375.673096,363.831726 360.575714,363.274994 
	C340.284454,362.526794 319.971161,362.375427 298.707489,361.935669 
M480.656219,322.916168 
	C478.699738,312.848969 476.301361,302.843170 474.891571,292.699982 
	C472.838684,277.929413 469.333252,263.435272 467.236298,248.665634 
	C465.747772,238.181427 464.974945,238.212265 454.770020,241.416428 
	C438.108246,246.647919 421.044678,248.678436 403.627716,248.285950 
	C396.084747,248.115982 395.253021,248.711563 396.317474,256.146576 
	C398.524323,271.560699 401.193420,286.910095 403.780640,302.267853 
	C405.509308,312.529541 407.478088,322.750610 409.241364,333.006714 
	C411.037079,343.451752 412.699066,353.919769 414.444458,364.373566 
	C416.382050,375.978180 418.599121,387.543274 420.213043,399.192261 
	C421.292694,406.985168 421.708496,407.863068 429.619659,407.898254 
	C440.254028,407.945557 450.874817,408.278778 461.494110,406.798218 
	C471.579559,405.392090 481.275940,402.868469 490.607269,398.872009 
	C492.328613,398.134827 493.584534,397.233337 493.114594,394.739838 
	C490.600342,381.398682 488.271179,368.022217 485.938690,354.647400 
	C484.145477,344.364594 482.441986,334.066162 480.656219,322.916168 
M73.496979,431.819458 
	C89.643425,432.314148 105.783699,432.886871 121.946762,432.842010 
	C140.765259,432.789764 159.603653,432.148041 178.393433,433.872742 
	C182.258545,434.227509 184.285583,433.589172 183.132980,428.645813 
	C181.480896,421.560120 180.061691,414.261658 179.892288,407.022491 
	C179.562775,392.941040 178.518677,378.745728 182.492661,364.871094 
	C183.497620,361.362427 182.190460,359.247772 177.961945,359.191864 
	C169.138718,359.075226 160.322571,358.504852 151.499542,358.271942 
	C136.517334,357.876434 121.531425,358.525787 106.539352,357.482849 
	C89.924049,356.326935 73.228706,357.623627 56.589390,356.503510 
	C54.457230,356.359955 52.305511,356.389404 51.532600,359.293152 
	C49.948086,365.245941 48.394642,371.210236 48.214661,377.386078 
	C47.724762,394.196198 47.872478,410.945862 52.111828,427.428955 
	C52.900051,430.493652 54.043373,431.721344 57.001484,431.712372 
	C62.167358,431.696686 67.333488,431.763672 73.496979,431.819458 
M481.525818,563.924438 
	C493.806702,562.772461 505.785828,560.331360 517.249756,555.641968 
	C519.486511,554.726990 520.746094,553.561096 520.250488,550.770630 
	C518.487305,540.843323 517.039246,530.860107 515.292725,520.929626 
	C512.570435,505.451050 509.649475,490.007446 506.909241,474.531921 
	C503.993774,458.067047 501.190643,441.582245 498.302368,424.897705 
	C494.291595,425.026520 491.206238,427.261017 487.768127,428.299408 
	C469.097565,433.938202 450.081940,436.023468 430.661926,434.359497 
	C426.896637,434.036896 426.113953,435.313873 426.909424,439.004242 
	C428.612885,446.907013 429.858551,454.911591 431.178986,462.893127 
	C433.696777,478.112518 435.581604,493.463562 438.804230,508.529968 
	C440.915985,518.402771 441.599274,528.475281 444.103729,538.282837 
	C445.858307,545.153809 446.311737,552.352112 447.457092,559.386230 
	C447.841949,561.749878 448.614716,563.780396 451.725952,563.991089 
	C461.365662,564.644165 470.991699,565.302063 481.525818,563.924438 
M612.824707,183.987442 
	C611.368408,178.990845 607.681580,180.700562 604.692749,181.592621 
	C596.909058,183.915771 589.037231,185.826294 581.052612,187.247238 
	C569.413330,189.318573 557.708374,190.722351 545.842712,189.970581 
	C542.862122,189.781754 540.911316,191.241455 540.641052,194.138412 
	C540.154480,199.352219 542.178162,204.192780 543.568298,209.076599 
	C544.095764,210.929565 546.275757,210.695618 547.928772,210.702240 
	C554.579346,210.728897 561.230774,210.783463 567.880676,210.714417 
	C582.822998,210.559265 597.080444,207.117569 610.891235,201.593536 
	C613.901123,200.389633 615.382263,198.277008 614.846375,194.975403 
	C614.290344,191.549988 613.700867,188.130020 612.824707,183.987442 
M458.735626,211.153549 
	C460.254181,204.929886 458.333496,199.109924 456.413513,193.364120 
	C455.841766,191.653137 454.042999,191.437775 452.145691,191.963226 
	C432.513855,197.400162 412.663239,201.330444 392.128937,200.167557 
	C389.043884,199.992844 387.110107,201.216385 387.409363,204.398972 
	C387.780579,208.347687 388.490356,212.275436 389.253326,216.173203 
	C389.924774,219.603470 392.050293,221.003967 395.689545,220.898849 
	C403.347321,220.677704 411.021667,221.020111 418.678925,220.789932 
	C432.425262,220.376709 445.638672,217.456421 458.735626,211.153549 
M412.058350,382.141266 
	C411.484192,377.703217 411.039948,373.243073 410.288940,368.835144 
	C409.810486,366.027191 408.467957,364.144104 404.980042,364.096008 
	C401.653931,364.050171 400.130096,365.409210 399.410706,368.386871 
	C398.826813,370.803619 397.759003,373.140991 397.455139,375.581970 
	C394.977570,395.482605 395.306458,415.265533 400.216522,434.839203 
	C400.636108,436.511902 401.186432,437.649200 403.033752,437.653717 
	C408.971222,437.668304 414.908783,437.659149 420.700500,437.659149 
	C421.694031,435.162262 420.919189,433.200623 420.644867,431.300415 
	C419.798553,425.438019 418.755920,419.602875 417.725616,413.768402 
	C415.913116,403.504395 414.053253,393.248779 412.058350,382.141266 
M43.039654,430.958374 
	C44.437046,430.742310 46.098633,431.302185 47.104572,429.511658 
	C46.329193,421.674957 43.927299,414.026581 43.356007,406.043488 
	C42.404900,392.753052 41.752674,379.494446 44.645466,366.376923 
	C47.138222,355.073425 47.284786,355.271667 35.694862,355.230682 
	C31.713974,355.216614 30.106567,356.797974 29.280609,360.449188 
	C24.777739,380.354706 24.842192,400.283936 28.901245,420.205444 
	C31.135965,431.173248 31.315519,431.136658 43.039654,430.958374 
M204.390030,424.191284 
	C203.224487,416.859467 201.348633,409.664551 201.603226,402.097382 
	C202.026062,389.530487 200.517548,376.854858 204.441452,364.531708 
	C205.407486,361.497864 204.483124,359.352051 200.640839,359.384369 
	C188.578888,359.485901 188.765442,357.634796 186.957428,369.452484 
	C186.686844,371.220978 185.582626,372.882935 185.424591,374.644470 
	C183.833237,392.381714 184.189835,409.992645 187.967590,427.529663 
	C189.047958,432.544891 191.104813,434.150177 195.920746,434.059784 
	C205.630737,433.877533 205.633789,434.040131 204.390030,424.191284 
M640.234009,558.166565 
	C628.551575,558.890808 616.866760,559.544373 605.128052,558.355286 
	C604.703430,562.998230 605.610291,566.551270 605.940247,570.160278 
	C606.271484,573.783875 607.877319,574.659485 611.155945,575.269653 
	C620.509033,577.010071 629.713684,575.297607 638.969543,574.747864 
	C652.510559,573.943542 665.414429,570.462769 677.908386,565.301636 
	C680.041443,564.420471 681.255859,562.991150 680.576233,560.666504 
	C679.816772,558.069153 679.924377,555.398987 679.533325,552.785889 
	C679.099304,549.885864 677.840149,547.603149 674.155640,549.255432 
	C663.630920,553.975098 652.458191,556.287720 640.234009,558.166565 
M391.591156,410.869659 
	C389.085236,397.917023 390.495972,385.143646 393.417999,372.455444 
	C395.301575,364.276611 395.351105,364.287354 386.941956,364.137512 
	C385.943298,364.119690 384.927887,364.227234 383.948456,364.083923 
	C379.491425,363.431671 378.009003,365.730225 376.996552,369.787476 
	C373.938049,382.044556 373.867645,394.479004 374.243652,406.926575 
	C374.529297,416.383301 376.311584,425.691620 378.282898,434.943512 
	C378.592377,436.395935 379.173798,437.525726 380.708649,437.700409 
	C385.580719,438.254883 390.462524,439.371796 395.540405,437.982208 
	C394.422546,429.038879 391.311371,420.656616 391.591156,410.869659 
M545.204346,227.121658 
	C545.564514,231.536758 548.092529,232.732819 552.303772,232.775909 
	C563.796814,232.893555 575.262634,232.755630 586.605164,230.772018 
	C596.393677,229.060196 606.114807,226.964279 615.229675,222.812485 
	C616.918518,222.043198 619.534119,221.664810 619.080688,218.963791 
	C618.327698,214.478699 618.430725,209.717484 615.656738,205.625763 
	C614.333984,205.995865 613.176208,206.192673 612.120728,206.634003 
	C593.533142,214.405899 574.072510,216.772171 554.096191,216.280029 
	C543.505371,216.019089 543.501343,216.182709 545.204346,227.121658 
M46.894264,565.987244 
	C46.518044,549.217102 45.113831,532.407104 49.961102,515.624146 
	C45.055767,515.397156 41.254837,515.289490 37.465023,515.023499 
	C34.642735,514.825378 32.823456,516.057007 32.575760,518.767944 
	C32.270241,522.111877 30.765755,525.202576 30.495842,528.441650 
	C29.075726,545.483643 28.997038,562.505432 32.569843,579.356079 
	C34.369232,587.842712 34.391979,587.841064 43.111423,587.786743 
	C44.772995,587.776428 46.434711,587.743469 48.095699,587.697266 
	C49.934956,587.646118 51.095303,586.704834 50.562313,584.864380 
	C48.853203,578.962646 49.353508,572.646057 46.894264,565.987244 
M29.773798,487.874695 
	C29.959196,490.191559 30.166309,492.506897 30.326410,494.825500 
	C31.250566,508.209442 33.752575,510.685059 45.535172,509.846680 
	C45.701069,509.834839 45.867996,509.822174 46.033867,509.827606 
	C49.239746,509.932281 50.229786,508.125153 49.555798,505.349152 
	C47.907436,498.559967 47.176987,491.652161 46.230526,484.746643 
	C44.243057,470.245850 44.922585,456.001709 48.334026,441.819916 
	C48.795162,439.902924 49.295681,437.867371 46.754692,436.713989 
	C39.376926,433.365143 31.449518,437.316742 30.439194,445.158966 
	C28.649166,459.053253 28.754484,473.010681 29.773798,487.874695 
M484.820557,406.459167 
	C479.231232,408.643097 473.419250,410.219391 467.530029,411.029175 
	C454.531799,412.816467 441.473541,414.506226 428.325134,412.385010 
	C424.067871,411.698242 422.873505,413.773956 423.539154,417.502045 
	C423.916199,419.613831 425.058960,421.686462 425.009888,423.756653 
	C424.905609,428.153839 427.043915,429.527649 431.045013,429.731293 
	C451.317108,430.763428 471.158752,428.579041 490.423767,422.010681 
	C497.223755,419.692261 497.424316,419.187531 496.066345,412.272583 
	C494.285034,403.201965 494.285065,403.201965 484.820557,406.459167 
M498.152161,583.676147 
	C506.291504,581.957886 514.242981,579.600891 522.045959,576.720703 
	C523.646545,576.129944 525.044556,574.942444 524.447388,573.454163 
	C522.723389,569.157471 523.744202,564.164368 521.085388,560.036987 
	C520.251099,560.169312 519.559814,560.157043 518.965271,560.390808 
	C498.649628,568.377991 477.634644,571.214722 455.909210,569.192261 
	C450.404327,568.679810 449.621826,569.765442 450.651276,575.026733 
	C450.969116,576.651062 451.375702,578.336060 451.247833,579.954346 
	C450.905243,584.289368 452.846802,585.615540 457.041473,585.990356 
	C470.597412,587.201660 483.937561,585.636597 498.152161,583.676147 
M461.202240,233.667267 
	C467.225555,228.413742 461.128784,223.393127 461.292358,218.350204 
	C458.904114,217.355499 457.017548,218.056671 455.154358,218.723694 
	C439.169220,224.446350 422.701508,226.984253 405.731506,226.341476 
	C402.073944,226.202942 398.408142,226.265106 394.746124,226.267563 
	C392.156860,226.269302 390.509430,227.531265 390.665314,230.182999 
	C390.820374,232.820114 391.252655,235.469299 391.857208,238.044205 
	C392.568237,241.072632 394.258728,242.886322 397.821564,242.799561 
	C405.640747,242.609116 413.524048,243.330170 421.278870,242.597031 
	C434.656555,241.332336 447.936066,239.152817 461.202240,233.667267 
M565.087646,562.929565 
	C553.227295,563.942993 541.373230,565.197693 529.200745,563.193054 
	C528.996643,567.323120 529.753235,570.738770 529.877930,574.158875 
	C530.078308,579.657043 532.862488,580.653687 537.567688,580.785278 
	C548.411560,581.088562 559.172363,580.376282 569.869385,578.798828 
	C579.218628,577.420105 588.435852,575.363586 597.302246,571.974182 
	C599.044983,571.307983 601.358826,570.445068 600.362671,568.270203 
	C598.453674,564.102234 599.588623,559.293762 596.940002,554.732239 
	C586.966919,558.561523 576.545715,561.014465 565.087646,562.929565 
M635.417053,580.304077 
	C627.950806,580.314880 620.491028,581.006714 613.015686,580.393860 
	C610.690979,580.203308 608.097412,580.039856 608.120239,583.626343 
	C608.140015,586.745972 608.301697,590.135132 612.209106,590.528259 
	C617.817566,591.092468 623.204102,592.808655 628.959900,592.790588 
	C637.621826,592.763367 646.195862,592.497437 654.693359,590.694946 
	C663.794617,588.764587 672.593628,586.023926 680.897827,581.740417 
	C683.429260,580.434570 684.317627,578.650940 683.362732,576.088440 
	C682.625000,574.108704 683.012024,571.716858 680.757996,569.644653 
	C666.708984,575.481201 651.781372,578.949463 635.417053,580.304077 
M13.304412,423.255707 
	C15.862069,431.417694 17.322824,432.289185 25.218643,430.035950 
	C24.967192,428.146149 24.834642,426.169373 24.428829,424.250397 
	C19.939350,403.021332 19.072462,381.784973 24.121412,360.510468 
	C24.600924,358.489990 25.799406,355.617523 22.371111,355.543610 
	C19.277460,355.476929 15.155554,353.242523 13.239849,358.005127 
	C10.745852,364.205475 9.198400,370.855865 8.644598,377.297058 
	C7.335971,392.517365 7.654732,407.817657 13.304412,423.255707 
M24.799522,489.428284 
	C22.865772,471.746216 23.179777,454.140350 27.304396,436.548828 
	C25.646700,436.317169 24.679085,436.170319 23.708355,436.048218 
	C16.607204,435.154724 15.925887,435.590759 14.172884,442.673920 
	C13.537107,445.242798 13.174454,447.878052 12.632365,450.471588 
	C8.611353,469.709015 11.174723,488.387299 17.453053,506.732849 
	C18.861448,510.848175 22.492598,510.141327 25.468983,509.651276 
	C28.994644,509.070740 27.613504,506.142670 27.271852,504.012634 
	C26.538614,499.441406 25.637909,494.896973 24.799522,489.428284 
M13.068509,532.418335 
	C9.794658,548.640808 12.210053,564.372864 16.931400,579.970886 
	C19.403362,588.137512 20.275520,588.855103 28.985128,587.121338 
	C23.750534,563.228821 22.759876,539.186829 27.919655,515.098389 
	C16.797550,514.167480 16.685858,514.138245 14.701027,521.728638 
	C13.867787,524.914978 13.619863,528.254395 13.068509,532.418335 
M473.482941,591.110229 
	C466.879700,591.110229 460.276489,591.110229 453.397034,591.110229 
	C453.687653,594.654968 452.943604,598.523071 456.129639,600.362732 
	C458.731354,601.864868 462.132019,602.442444 465.215332,602.575500 
	C483.020050,603.343811 500.696350,603.202332 517.718811,596.480347 
	C527.748718,592.519653 528.274170,592.228088 525.726685,582.000305 
	C525.663025,581.744629 525.282471,581.567932 524.770142,581.097961 
	C508.713470,587.352478 491.915039,590.895020 473.482941,591.110229 
M599.579956,589.276794 
	C607.154602,586.110352 600.117615,581.101257 602.282166,575.908630 
	C578.607910,583.635071 555.740479,587.359131 531.622681,585.216919 
	C532.709412,589.485901 531.209045,594.192383 536.168274,595.414795 
	C539.648010,596.272583 543.318787,596.678589 547.013184,596.826538 
	C564.765076,597.537537 582.249023,596.689148 599.579956,589.276794 
z"/>
</svg>